<?xml version="1.0" standalone="no"?>
<!-- Generator: Adobe Fireworks 10, Export SVG Extension by Aaron Beall (http://fireworks.abeall.com) . Version: 0.6.1  -->
<!DOCTYPE svg PUBLIC "-//W3C//DTD SVG 1.1//EN" "http://www.w3.org/Graphics/SVG/1.1/DTD/svg11.dtd">
<svg id="studysauce-google-page-transparent-Page%201" viewBox="0 0 300 300" style="background-color:#ffffff00" version="1.1"
	xmlns="http://www.w3.org/2000/svg" xmlns:xlink="http://www.w3.org/1999/xlink" xml:space="preserve"
	x="0px" y="0px" width="300px" height="300px"
>
	<path d="M 63.2396 137.9484 C 63.9524 137.3535 65.7078 137.5798 66.4076 137.9079 L 151.3097 177.3304 C 152.2601 178.2417 151.6265 179.0746 151.3097 179.8281 L 150.0425 182.3662 C 149.5277 183.0405 148.208 182.7348 147.5081 182.4068 L 63.2396 142.9842 C 62.5398 142.6561 61.814 141.2401 61.9724 140.4865 L 63.2396 137.9484 ZM 60.848 176.8441 L 105.8839 199.8923 L 151.2569 223.4465 C 153.3482 224.5315 154.8594 225.0831 155.8843 224.9281 C 158.2964 225.278 160.6052 224.3514 165.629 222.1329 L 241.4978 185.7573 C 246.7445 183.6443 247.5978 178.5089 243.0386 176.4667 L 239.3671 175.1896 C 239.18 177.5539 236.8718 179.113 234.4496 180.188 L 160.7413 215.4395 C 158.1694 216.581 157.0121 215.9415 157.0121 213.3777 L 157.0121 186.4032 C 157.0121 183.8394 158.803 181.5426 161.3749 180.4113 L 235.7168 148.6248 C 236.6296 148.2233 237.3606 147.9692 237.9225 147.9265 L 241.4978 146.4157 C 246.7445 144.3027 247.5978 139.1673 243.0386 137.1251 L 187.0826 118.8994 C 180.8226 132.634 165.2761 142.3902 149.7257 142.3902 C 133.8376 142.3902 117.9554 131.4147 111.976 116.8753 L 62.3888 131.3846 C 59.2269 132.1317 57.7369 133.4431 57.7369 133.4431 C 57.7369 133.4431 54.8973 135.1987 55.0029 139.852 L 55.0029 167.7189 C 55.0029 170.034 55.1396 172.5127 56.4887 174.076 C 56.9146 175.3595 58.8657 175.9562 60.848 176.8441 ZM 182.2324 117.3194 L 182.2483 117.2877 C 184.6129 112.6063 186.0009 106.2212 186.1449 100.5326 C 186.0989 99.7403 185.9316 97.7044 185.752 95.726 C 181.8546 76.8937 151.1504 57.881 150.3593 25 C 149.6072 56.0709 121.4445 74.3145 115.2738 92.163 C 114.9007 94.0264 114.3531 97.0917 114.0858 98.8733 C 114.0876 100.9883 114.142 103.3879 114.3361 105.793 C 116.9219 123.3912 131.5007 137.3138 149.7257 137.3138 C 163.9204 137.3138 176.2192 129.1833 182.2324 117.3194 Z" fill="#ff9900"/>
</svg>